<mxfile host="app.diagrams.net" modified="2023-07-19T11:29:20.126Z" agent="Mozilla/5.0 (Windows NT 10.0; Win64; x64) AppleWebKit/537.36 (KHTML, like Gecko) Chrome/114.0.0.0 Safari/537.36" etag="iBttuO0tFUszQuT_4_eH" version="21.6.3" type="device">
  <diagram name="Page-1" id="NfOUrTeq0rV5Aat35N8m">
    <mxGraphModel dx="1917" dy="863" grid="1" gridSize="10" guides="1" tooltips="1" connect="1" arrows="1" fold="1" page="1" pageScale="1" pageWidth="827" pageHeight="1169" math="0" shadow="0">
      <root>
        <mxCell id="0" />
        <mxCell id="1" parent="0" />
        <mxCell id="I_y_-d5DrggXX2iTpF_o-89" style="edgeStyle=orthogonalEdgeStyle;rounded=0;orthogonalLoop=1;jettySize=auto;html=1;entryX=0.5;entryY=1;entryDx=0;entryDy=0;entryPerimeter=0;" edge="1" parent="1" source="I_y_-d5DrggXX2iTpF_o-2" target="I_y_-d5DrggXX2iTpF_o-83">
          <mxGeometry relative="1" as="geometry" />
        </mxCell>
        <mxCell id="I_y_-d5DrggXX2iTpF_o-2" value="Viticulteur" style="swimlane;fontStyle=0;childLayout=stackLayout;horizontal=1;startSize=30;horizontalStack=0;resizeParent=1;resizeParentMax=0;resizeLast=0;collapsible=1;marginBottom=0;whiteSpace=wrap;html=1;" vertex="1" parent="1">
          <mxGeometry x="310" y="890" width="140" height="180" as="geometry" />
        </mxCell>
        <mxCell id="I_y_-d5DrggXX2iTpF_o-4" value="ðŸ”‘NumViticulteur" style="text;strokeColor=none;fillColor=none;align=left;verticalAlign=middle;spacingLeft=4;spacingRight=4;overflow=hidden;points=[[0,0.5],[1,0.5]];portConstraint=eastwest;rotatable=0;whiteSpace=wrap;html=1;" vertex="1" parent="I_y_-d5DrggXX2iTpF_o-2">
          <mxGeometry y="30" width="140" height="30" as="geometry" />
        </mxCell>
        <mxCell id="I_y_-d5DrggXX2iTpF_o-5" value="Nom viticulteur" style="text;strokeColor=none;fillColor=none;align=left;verticalAlign=middle;spacingLeft=4;spacingRight=4;overflow=hidden;points=[[0,0.5],[1,0.5]];portConstraint=eastwest;rotatable=0;whiteSpace=wrap;html=1;" vertex="1" parent="I_y_-d5DrggXX2iTpF_o-2">
          <mxGeometry y="60" width="140" height="20" as="geometry" />
        </mxCell>
        <mxCell id="I_y_-d5DrggXX2iTpF_o-9" value="PrÃ©nom viticulteur" style="text;strokeColor=none;fillColor=none;align=left;verticalAlign=middle;spacingLeft=4;spacingRight=4;overflow=hidden;points=[[0,0.5],[1,0.5]];portConstraint=eastwest;rotatable=0;whiteSpace=wrap;html=1;" vertex="1" parent="I_y_-d5DrggXX2iTpF_o-2">
          <mxGeometry y="80" width="140" height="20" as="geometry" />
        </mxCell>
        <mxCell id="I_y_-d5DrggXX2iTpF_o-10" value="Adresse viticulteur" style="text;strokeColor=none;fillColor=none;align=left;verticalAlign=middle;spacingLeft=4;spacingRight=4;overflow=hidden;points=[[0,0.5],[1,0.5]];portConstraint=eastwest;rotatable=0;whiteSpace=wrap;html=1;" vertex="1" parent="I_y_-d5DrggXX2iTpF_o-2">
          <mxGeometry y="100" width="140" height="20" as="geometry" />
        </mxCell>
        <mxCell id="I_y_-d5DrggXX2iTpF_o-11" value="Code postal" style="text;strokeColor=none;fillColor=none;align=left;verticalAlign=middle;spacingLeft=4;spacingRight=4;overflow=hidden;points=[[0,0.5],[1,0.5]];portConstraint=eastwest;rotatable=0;whiteSpace=wrap;html=1;" vertex="1" parent="I_y_-d5DrggXX2iTpF_o-2">
          <mxGeometry y="120" width="140" height="20" as="geometry" />
        </mxCell>
        <mxCell id="I_y_-d5DrggXX2iTpF_o-12" value="Ville" style="text;strokeColor=none;fillColor=none;align=left;verticalAlign=middle;spacingLeft=4;spacingRight=4;overflow=hidden;points=[[0,0.5],[1,0.5]];portConstraint=eastwest;rotatable=0;whiteSpace=wrap;html=1;" vertex="1" parent="I_y_-d5DrggXX2iTpF_o-2">
          <mxGeometry y="140" width="140" height="20" as="geometry" />
        </mxCell>
        <mxCell id="I_y_-d5DrggXX2iTpF_o-13" value="TÃ©lÃ©phone" style="text;strokeColor=none;fillColor=none;align=left;verticalAlign=middle;spacingLeft=4;spacingRight=4;overflow=hidden;points=[[0,0.5],[1,0.5]];portConstraint=eastwest;rotatable=0;whiteSpace=wrap;html=1;" vertex="1" parent="I_y_-d5DrggXX2iTpF_o-2">
          <mxGeometry y="160" width="140" height="20" as="geometry" />
        </mxCell>
        <mxCell id="I_y_-d5DrggXX2iTpF_o-129" style="edgeStyle=orthogonalEdgeStyle;rounded=0;orthogonalLoop=1;jettySize=auto;html=1;entryX=0.5;entryY=1;entryDx=0;entryDy=0;entryPerimeter=0;" edge="1" parent="1" source="I_y_-d5DrggXX2iTpF_o-14" target="I_y_-d5DrggXX2iTpF_o-128">
          <mxGeometry relative="1" as="geometry">
            <mxPoint x="380" y="570" as="targetPoint" />
          </mxGeometry>
        </mxCell>
        <mxCell id="I_y_-d5DrggXX2iTpF_o-14" value="Bouteilles" style="swimlane;fontStyle=0;childLayout=stackLayout;horizontal=1;startSize=30;horizontalStack=0;resizeParent=1;resizeParentMax=0;resizeLast=0;collapsible=1;marginBottom=0;whiteSpace=wrap;html=1;" vertex="1" parent="1">
          <mxGeometry x="310" y="660" width="140" height="180" as="geometry" />
        </mxCell>
        <mxCell id="I_y_-d5DrggXX2iTpF_o-15" value="ðŸ”‘NumBouteille" style="text;strokeColor=none;fillColor=none;align=left;verticalAlign=middle;spacingLeft=4;spacingRight=4;overflow=hidden;points=[[0,0.5],[1,0.5]];portConstraint=eastwest;rotatable=0;whiteSpace=wrap;html=1;" vertex="1" parent="I_y_-d5DrggXX2iTpF_o-14">
          <mxGeometry y="30" width="140" height="30" as="geometry" />
        </mxCell>
        <mxCell id="I_y_-d5DrggXX2iTpF_o-17" value="Date d&#39;achat" style="text;strokeColor=none;fillColor=none;align=left;verticalAlign=middle;spacingLeft=4;spacingRight=4;overflow=hidden;points=[[0,0.5],[1,0.5]];portConstraint=eastwest;rotatable=0;whiteSpace=wrap;html=1;" vertex="1" parent="I_y_-d5DrggXX2iTpF_o-14">
          <mxGeometry y="60" width="140" height="30" as="geometry" />
        </mxCell>
        <mxCell id="I_y_-d5DrggXX2iTpF_o-18" value="Prix d&#39;achat" style="text;strokeColor=none;fillColor=none;align=left;verticalAlign=middle;spacingLeft=4;spacingRight=4;overflow=hidden;points=[[0,0.5],[1,0.5]];portConstraint=eastwest;rotatable=0;whiteSpace=wrap;html=1;" vertex="1" parent="I_y_-d5DrggXX2iTpF_o-14">
          <mxGeometry y="90" width="140" height="30" as="geometry" />
        </mxCell>
        <mxCell id="I_y_-d5DrggXX2iTpF_o-19" value="#NumViticulteur" style="text;strokeColor=none;fillColor=none;align=left;verticalAlign=middle;spacingLeft=4;spacingRight=4;overflow=hidden;points=[[0,0.5],[1,0.5]];portConstraint=eastwest;rotatable=0;whiteSpace=wrap;html=1;" vertex="1" parent="I_y_-d5DrggXX2iTpF_o-14">
          <mxGeometry y="120" width="140" height="30" as="geometry" />
        </mxCell>
        <mxCell id="I_y_-d5DrggXX2iTpF_o-83" value="#NumVin" style="text;strokeColor=none;fillColor=none;align=left;verticalAlign=middle;spacingLeft=4;spacingRight=4;overflow=hidden;points=[[0,0.5],[1,0.5]];portConstraint=eastwest;rotatable=0;whiteSpace=wrap;html=1;" vertex="1" parent="I_y_-d5DrggXX2iTpF_o-14">
          <mxGeometry y="150" width="140" height="30" as="geometry" />
        </mxCell>
        <mxCell id="I_y_-d5DrggXX2iTpF_o-108" style="edgeStyle=orthogonalEdgeStyle;rounded=0;orthogonalLoop=1;jettySize=auto;html=1;entryX=-0.037;entryY=0.08;entryDx=0;entryDy=0;entryPerimeter=0;" edge="1" parent="1" source="I_y_-d5DrggXX2iTpF_o-20" target="I_y_-d5DrggXX2iTpF_o-106">
          <mxGeometry relative="1" as="geometry" />
        </mxCell>
        <mxCell id="I_y_-d5DrggXX2iTpF_o-20" value="Carte des vins" style="swimlane;fontStyle=0;childLayout=stackLayout;horizontal=1;startSize=30;horizontalStack=0;resizeParent=1;resizeParentMax=0;resizeLast=0;collapsible=1;marginBottom=0;whiteSpace=wrap;html=1;" vertex="1" parent="1">
          <mxGeometry x="30" y="730" width="140" height="180" as="geometry" />
        </mxCell>
        <mxCell id="I_y_-d5DrggXX2iTpF_o-22" value="ðŸ”‘ NumVin" style="text;strokeColor=none;fillColor=none;align=left;verticalAlign=middle;spacingLeft=4;spacingRight=4;overflow=hidden;points=[[0,0.5],[1,0.5]];portConstraint=eastwest;rotatable=0;whiteSpace=wrap;html=1;" vertex="1" parent="I_y_-d5DrggXX2iTpF_o-20">
          <mxGeometry y="30" width="140" height="30" as="geometry" />
        </mxCell>
        <mxCell id="I_y_-d5DrggXX2iTpF_o-23" value="Nom du vin" style="text;strokeColor=none;fillColor=none;align=left;verticalAlign=middle;spacingLeft=4;spacingRight=4;overflow=hidden;points=[[0,0.5],[1,0.5]];portConstraint=eastwest;rotatable=0;whiteSpace=wrap;html=1;" vertex="1" parent="I_y_-d5DrggXX2iTpF_o-20">
          <mxGeometry y="60" width="140" height="30" as="geometry" />
        </mxCell>
        <mxCell id="I_y_-d5DrggXX2iTpF_o-24" value="MillÃ©sime" style="text;strokeColor=none;fillColor=none;align=left;verticalAlign=middle;spacingLeft=4;spacingRight=4;overflow=hidden;points=[[0,0.5],[1,0.5]];portConstraint=eastwest;rotatable=0;whiteSpace=wrap;html=1;" vertex="1" parent="I_y_-d5DrggXX2iTpF_o-20">
          <mxGeometry y="90" width="140" height="30" as="geometry" />
        </mxCell>
        <mxCell id="I_y_-d5DrggXX2iTpF_o-25" value="Prix de vente" style="text;strokeColor=none;fillColor=none;align=left;verticalAlign=middle;spacingLeft=4;spacingRight=4;overflow=hidden;points=[[0,0.5],[1,0.5]];portConstraint=eastwest;rotatable=0;whiteSpace=wrap;html=1;" vertex="1" parent="I_y_-d5DrggXX2iTpF_o-20">
          <mxGeometry y="120" width="140" height="30" as="geometry" />
        </mxCell>
        <mxCell id="I_y_-d5DrggXX2iTpF_o-33" value="#NumBouteille" style="text;strokeColor=none;fillColor=none;align=left;verticalAlign=middle;spacingLeft=4;spacingRight=4;overflow=hidden;points=[[0,0.5],[1,0.5]];portConstraint=eastwest;rotatable=0;whiteSpace=wrap;html=1;" vertex="1" parent="I_y_-d5DrggXX2iTpF_o-20">
          <mxGeometry y="150" width="140" height="30" as="geometry" />
        </mxCell>
        <mxCell id="I_y_-d5DrggXX2iTpF_o-26" value="Commande" style="swimlane;fontStyle=0;childLayout=stackLayout;horizontal=1;startSize=30;horizontalStack=0;resizeParent=1;resizeParentMax=0;resizeLast=0;collapsible=1;marginBottom=0;whiteSpace=wrap;html=1;" vertex="1" parent="1">
          <mxGeometry x="310" y="380" width="140" height="180" as="geometry" />
        </mxCell>
        <mxCell id="I_y_-d5DrggXX2iTpF_o-27" value="ðŸ”‘NumCommande" style="text;strokeColor=none;fillColor=none;align=left;verticalAlign=middle;spacingLeft=4;spacingRight=4;overflow=hidden;points=[[0,0.5],[1,0.5]];portConstraint=eastwest;rotatable=0;whiteSpace=wrap;html=1;" vertex="1" parent="I_y_-d5DrggXX2iTpF_o-26">
          <mxGeometry y="30" width="140" height="30" as="geometry" />
        </mxCell>
        <mxCell id="I_y_-d5DrggXX2iTpF_o-125" value="#NumService" style="text;strokeColor=none;fillColor=none;align=left;verticalAlign=middle;spacingLeft=4;spacingRight=4;overflow=hidden;points=[[0,0.5],[1,0.5]];portConstraint=eastwest;rotatable=0;whiteSpace=wrap;html=1;" vertex="1" parent="I_y_-d5DrggXX2iTpF_o-26">
          <mxGeometry y="60" width="140" height="30" as="geometry" />
        </mxCell>
        <mxCell id="I_y_-d5DrggXX2iTpF_o-126" value="#NumDate" style="text;strokeColor=none;fillColor=none;align=left;verticalAlign=middle;spacingLeft=4;spacingRight=4;overflow=hidden;points=[[0,0.5],[1,0.5]];portConstraint=eastwest;rotatable=0;whiteSpace=wrap;html=1;" vertex="1" parent="I_y_-d5DrggXX2iTpF_o-26">
          <mxGeometry y="90" width="140" height="30" as="geometry" />
        </mxCell>
        <mxCell id="I_y_-d5DrggXX2iTpF_o-127" value="#NumEmployÃ©" style="text;strokeColor=none;fillColor=none;align=left;verticalAlign=middle;spacingLeft=4;spacingRight=4;overflow=hidden;points=[[0,0.5],[1,0.5]];portConstraint=eastwest;rotatable=0;whiteSpace=wrap;html=1;" vertex="1" parent="I_y_-d5DrggXX2iTpF_o-26">
          <mxGeometry y="120" width="140" height="30" as="geometry" />
        </mxCell>
        <mxCell id="I_y_-d5DrggXX2iTpF_o-128" value="#NumTables" style="text;strokeColor=none;fillColor=none;align=left;verticalAlign=middle;spacingLeft=4;spacingRight=4;overflow=hidden;points=[[0,0.5],[1,0.5]];portConstraint=eastwest;rotatable=0;whiteSpace=wrap;html=1;" vertex="1" parent="I_y_-d5DrggXX2iTpF_o-26">
          <mxGeometry y="150" width="140" height="30" as="geometry" />
        </mxCell>
        <mxCell id="I_y_-d5DrggXX2iTpF_o-116" style="edgeStyle=orthogonalEdgeStyle;rounded=0;orthogonalLoop=1;jettySize=auto;html=1;entryX=-0.036;entryY=0.054;entryDx=0;entryDy=0;entryPerimeter=0;" edge="1" parent="1" source="I_y_-d5DrggXX2iTpF_o-34" target="I_y_-d5DrggXX2iTpF_o-114">
          <mxGeometry relative="1" as="geometry" />
        </mxCell>
        <mxCell id="I_y_-d5DrggXX2iTpF_o-34" value="Boissons Diverses" style="swimlane;fontStyle=0;childLayout=stackLayout;horizontal=1;startSize=30;horizontalStack=0;resizeParent=1;resizeParentMax=0;resizeLast=0;collapsible=1;marginBottom=0;whiteSpace=wrap;html=1;" vertex="1" parent="1">
          <mxGeometry y="410" width="140" height="120" as="geometry" />
        </mxCell>
        <mxCell id="I_y_-d5DrggXX2iTpF_o-35" value="ðŸ”‘NumBoissons" style="text;strokeColor=none;fillColor=none;align=left;verticalAlign=middle;spacingLeft=4;spacingRight=4;overflow=hidden;points=[[0,0.5],[1,0.5]];portConstraint=eastwest;rotatable=0;whiteSpace=wrap;html=1;" vertex="1" parent="I_y_-d5DrggXX2iTpF_o-34">
          <mxGeometry y="30" width="140" height="30" as="geometry" />
        </mxCell>
        <mxCell id="I_y_-d5DrggXX2iTpF_o-36" value="DÃ©signation" style="text;strokeColor=none;fillColor=none;align=left;verticalAlign=middle;spacingLeft=4;spacingRight=4;overflow=hidden;points=[[0,0.5],[1,0.5]];portConstraint=eastwest;rotatable=0;whiteSpace=wrap;html=1;" vertex="1" parent="I_y_-d5DrggXX2iTpF_o-34">
          <mxGeometry y="60" width="140" height="30" as="geometry" />
        </mxCell>
        <mxCell id="I_y_-d5DrggXX2iTpF_o-42" value="Prix de vente" style="text;strokeColor=none;fillColor=none;align=left;verticalAlign=middle;spacingLeft=4;spacingRight=4;overflow=hidden;points=[[0,0.5],[1,0.5]];portConstraint=eastwest;rotatable=0;whiteSpace=wrap;html=1;" vertex="1" parent="I_y_-d5DrggXX2iTpF_o-34">
          <mxGeometry y="90" width="140" height="30" as="geometry" />
        </mxCell>
        <mxCell id="I_y_-d5DrggXX2iTpF_o-44" value="Service" style="swimlane;fontStyle=0;childLayout=stackLayout;horizontal=1;startSize=30;horizontalStack=0;resizeParent=1;resizeParentMax=0;resizeLast=0;collapsible=1;marginBottom=0;whiteSpace=wrap;html=1;" vertex="1" parent="1">
          <mxGeometry x="80" y="300" width="140" height="90" as="geometry" />
        </mxCell>
        <mxCell id="I_y_-d5DrggXX2iTpF_o-45" value="ðŸ”‘NumService" style="text;strokeColor=none;fillColor=none;align=left;verticalAlign=middle;spacingLeft=4;spacingRight=4;overflow=hidden;points=[[0,0.5],[1,0.5]];portConstraint=eastwest;rotatable=0;whiteSpace=wrap;html=1;" vertex="1" parent="I_y_-d5DrggXX2iTpF_o-44">
          <mxGeometry y="30" width="140" height="30" as="geometry" />
        </mxCell>
        <mxCell id="I_y_-d5DrggXX2iTpF_o-46" value="DÃ©signation" style="text;strokeColor=none;fillColor=none;align=left;verticalAlign=middle;spacingLeft=4;spacingRight=4;overflow=hidden;points=[[0,0.5],[1,0.5]];portConstraint=eastwest;rotatable=0;whiteSpace=wrap;html=1;" vertex="1" parent="I_y_-d5DrggXX2iTpF_o-44">
          <mxGeometry y="60" width="140" height="30" as="geometry" />
        </mxCell>
        <mxCell id="I_y_-d5DrggXX2iTpF_o-96" style="edgeStyle=orthogonalEdgeStyle;rounded=0;orthogonalLoop=1;jettySize=auto;html=1;entryX=0.293;entryY=-0.035;entryDx=0;entryDy=0;entryPerimeter=0;" edge="1" parent="1" source="I_y_-d5DrggXX2iTpF_o-49" target="I_y_-d5DrggXX2iTpF_o-26">
          <mxGeometry relative="1" as="geometry" />
        </mxCell>
        <mxCell id="I_y_-d5DrggXX2iTpF_o-49" value="Date" style="swimlane;fontStyle=0;childLayout=stackLayout;horizontal=1;startSize=30;horizontalStack=0;resizeParent=1;resizeParentMax=0;resizeLast=0;collapsible=1;marginBottom=0;whiteSpace=wrap;html=1;" vertex="1" parent="1">
          <mxGeometry x="80" y="220" width="140" height="60" as="geometry" />
        </mxCell>
        <mxCell id="I_y_-d5DrggXX2iTpF_o-50" value="ðŸ”‘Date" style="text;strokeColor=none;fillColor=none;align=left;verticalAlign=middle;spacingLeft=4;spacingRight=4;overflow=hidden;points=[[0,0.5],[1,0.5]];portConstraint=eastwest;rotatable=0;whiteSpace=wrap;html=1;" vertex="1" parent="I_y_-d5DrggXX2iTpF_o-49">
          <mxGeometry y="30" width="140" height="30" as="geometry" />
        </mxCell>
        <mxCell id="I_y_-d5DrggXX2iTpF_o-54" value="EmployÃ©s" style="swimlane;fontStyle=0;childLayout=stackLayout;horizontal=1;startSize=30;horizontalStack=0;resizeParent=1;resizeParentMax=0;resizeLast=0;collapsible=1;marginBottom=0;whiteSpace=wrap;html=1;" vertex="1" parent="1">
          <mxGeometry x="300" y="40" width="140" height="180" as="geometry" />
        </mxCell>
        <mxCell id="I_y_-d5DrggXX2iTpF_o-55" value="ðŸ”‘NumEmployÃ©s" style="text;strokeColor=none;fillColor=none;align=left;verticalAlign=middle;spacingLeft=4;spacingRight=4;overflow=hidden;points=[[0,0.5],[1,0.5]];portConstraint=eastwest;rotatable=0;whiteSpace=wrap;html=1;" vertex="1" parent="I_y_-d5DrggXX2iTpF_o-54">
          <mxGeometry y="30" width="140" height="30" as="geometry" />
        </mxCell>
        <mxCell id="I_y_-d5DrggXX2iTpF_o-56" value="Nom&amp;nbsp;" style="text;strokeColor=none;fillColor=none;align=left;verticalAlign=middle;spacingLeft=4;spacingRight=4;overflow=hidden;points=[[0,0.5],[1,0.5]];portConstraint=eastwest;rotatable=0;whiteSpace=wrap;html=1;" vertex="1" parent="I_y_-d5DrggXX2iTpF_o-54">
          <mxGeometry y="60" width="140" height="20" as="geometry" />
        </mxCell>
        <mxCell id="I_y_-d5DrggXX2iTpF_o-57" value="PrÃ©nom&amp;nbsp;" style="text;strokeColor=none;fillColor=none;align=left;verticalAlign=middle;spacingLeft=4;spacingRight=4;overflow=hidden;points=[[0,0.5],[1,0.5]];portConstraint=eastwest;rotatable=0;whiteSpace=wrap;html=1;" vertex="1" parent="I_y_-d5DrggXX2iTpF_o-54">
          <mxGeometry y="80" width="140" height="20" as="geometry" />
        </mxCell>
        <mxCell id="I_y_-d5DrggXX2iTpF_o-58" value="Adresse&amp;nbsp;" style="text;strokeColor=none;fillColor=none;align=left;verticalAlign=middle;spacingLeft=4;spacingRight=4;overflow=hidden;points=[[0,0.5],[1,0.5]];portConstraint=eastwest;rotatable=0;whiteSpace=wrap;html=1;" vertex="1" parent="I_y_-d5DrggXX2iTpF_o-54">
          <mxGeometry y="100" width="140" height="20" as="geometry" />
        </mxCell>
        <mxCell id="I_y_-d5DrggXX2iTpF_o-59" value="Code postal" style="text;strokeColor=none;fillColor=none;align=left;verticalAlign=middle;spacingLeft=4;spacingRight=4;overflow=hidden;points=[[0,0.5],[1,0.5]];portConstraint=eastwest;rotatable=0;whiteSpace=wrap;html=1;" vertex="1" parent="I_y_-d5DrggXX2iTpF_o-54">
          <mxGeometry y="120" width="140" height="20" as="geometry" />
        </mxCell>
        <mxCell id="I_y_-d5DrggXX2iTpF_o-60" value="Ville" style="text;strokeColor=none;fillColor=none;align=left;verticalAlign=middle;spacingLeft=4;spacingRight=4;overflow=hidden;points=[[0,0.5],[1,0.5]];portConstraint=eastwest;rotatable=0;whiteSpace=wrap;html=1;" vertex="1" parent="I_y_-d5DrggXX2iTpF_o-54">
          <mxGeometry y="140" width="140" height="20" as="geometry" />
        </mxCell>
        <mxCell id="I_y_-d5DrggXX2iTpF_o-61" value="TÃ©lÃ©phone" style="text;strokeColor=none;fillColor=none;align=left;verticalAlign=middle;spacingLeft=4;spacingRight=4;overflow=hidden;points=[[0,0.5],[1,0.5]];portConstraint=eastwest;rotatable=0;whiteSpace=wrap;html=1;" vertex="1" parent="I_y_-d5DrggXX2iTpF_o-54">
          <mxGeometry y="160" width="140" height="20" as="geometry" />
        </mxCell>
        <mxCell id="I_y_-d5DrggXX2iTpF_o-97" style="edgeStyle=orthogonalEdgeStyle;rounded=0;orthogonalLoop=1;jettySize=auto;html=1;entryX=-0.021;entryY=0.679;entryDx=0;entryDy=0;entryPerimeter=0;" edge="1" parent="1" source="I_y_-d5DrggXX2iTpF_o-63" target="I_y_-d5DrggXX2iTpF_o-55">
          <mxGeometry relative="1" as="geometry" />
        </mxCell>
        <mxCell id="I_y_-d5DrggXX2iTpF_o-63" value="DiplÃ´mes" style="swimlane;fontStyle=0;childLayout=stackLayout;horizontal=1;startSize=30;horizontalStack=0;resizeParent=1;resizeParentMax=0;resizeLast=0;collapsible=1;marginBottom=0;whiteSpace=wrap;html=1;" vertex="1" parent="1">
          <mxGeometry x="80" y="60" width="140" height="60" as="geometry" />
        </mxCell>
        <mxCell id="I_y_-d5DrggXX2iTpF_o-64" value="ðŸ”‘DiplÃ´mes" style="text;strokeColor=none;fillColor=none;align=left;verticalAlign=middle;spacingLeft=4;spacingRight=4;overflow=hidden;points=[[0,0.5],[1,0.5]];portConstraint=eastwest;rotatable=0;whiteSpace=wrap;html=1;" vertex="1" parent="I_y_-d5DrggXX2iTpF_o-63">
          <mxGeometry y="30" width="140" height="30" as="geometry" />
        </mxCell>
        <mxCell id="I_y_-d5DrggXX2iTpF_o-131" style="edgeStyle=orthogonalEdgeStyle;rounded=0;orthogonalLoop=1;jettySize=auto;html=1;exitX=0.412;exitY=0.017;exitDx=0;exitDy=0;exitPerimeter=0;entryX=0.429;entryY=1.015;entryDx=0;entryDy=0;entryPerimeter=0;" edge="1" parent="1" source="I_y_-d5DrggXX2iTpF_o-66" target="I_y_-d5DrggXX2iTpF_o-130">
          <mxGeometry relative="1" as="geometry">
            <mxPoint x="650" y="740" as="targetPoint" />
            <mxPoint x="659.75" y="795" as="sourcePoint" />
            <Array as="points">
              <mxPoint x="658" y="820" />
              <mxPoint x="740" y="820" />
            </Array>
          </mxGeometry>
        </mxCell>
        <mxCell id="I_y_-d5DrggXX2iTpF_o-66" value="Type des plats" style="swimlane;fontStyle=0;childLayout=stackLayout;horizontal=1;startSize=30;horizontalStack=0;resizeParent=1;resizeParentMax=0;resizeLast=0;collapsible=1;marginBottom=0;whiteSpace=wrap;html=1;" vertex="1" parent="1">
          <mxGeometry x="600" y="860" width="140" height="90" as="geometry" />
        </mxCell>
        <mxCell id="I_y_-d5DrggXX2iTpF_o-67" value="ðŸ”‘NumType" style="text;strokeColor=none;fillColor=none;align=left;verticalAlign=middle;spacingLeft=4;spacingRight=4;overflow=hidden;points=[[0,0.5],[1,0.5]];portConstraint=eastwest;rotatable=0;whiteSpace=wrap;html=1;" vertex="1" parent="I_y_-d5DrggXX2iTpF_o-66">
          <mxGeometry y="30" width="140" height="30" as="geometry" />
        </mxCell>
        <mxCell id="I_y_-d5DrggXX2iTpF_o-68" value="DÃ©signation" style="text;strokeColor=none;fillColor=none;align=left;verticalAlign=middle;spacingLeft=4;spacingRight=4;overflow=hidden;points=[[0,0.5],[1,0.5]];portConstraint=eastwest;rotatable=0;whiteSpace=wrap;html=1;" vertex="1" parent="I_y_-d5DrggXX2iTpF_o-66">
          <mxGeometry y="60" width="140" height="30" as="geometry" />
        </mxCell>
        <mxCell id="I_y_-d5DrggXX2iTpF_o-70" value="Carte des plats" style="swimlane;fontStyle=0;childLayout=stackLayout;horizontal=1;startSize=30;horizontalStack=0;resizeParent=1;resizeParentMax=0;resizeLast=0;collapsible=1;marginBottom=0;whiteSpace=wrap;html=1;" vertex="1" parent="1">
          <mxGeometry x="680" y="610" width="140" height="150" as="geometry" />
        </mxCell>
        <mxCell id="I_y_-d5DrggXX2iTpF_o-71" value="ðŸ”‘NumPlats" style="text;strokeColor=none;fillColor=none;align=left;verticalAlign=middle;spacingLeft=4;spacingRight=4;overflow=hidden;points=[[0,0.5],[1,0.5]];portConstraint=eastwest;rotatable=0;whiteSpace=wrap;html=1;" vertex="1" parent="I_y_-d5DrggXX2iTpF_o-70">
          <mxGeometry y="30" width="140" height="30" as="geometry" />
        </mxCell>
        <mxCell id="I_y_-d5DrggXX2iTpF_o-72" value="LibellÃ©sPlat" style="text;strokeColor=none;fillColor=none;align=left;verticalAlign=middle;spacingLeft=4;spacingRight=4;overflow=hidden;points=[[0,0.5],[1,0.5]];portConstraint=eastwest;rotatable=0;whiteSpace=wrap;html=1;" vertex="1" parent="I_y_-d5DrggXX2iTpF_o-70">
          <mxGeometry y="60" width="140" height="30" as="geometry" />
        </mxCell>
        <mxCell id="I_y_-d5DrggXX2iTpF_o-73" value="Prix de vente" style="text;strokeColor=none;fillColor=none;align=left;verticalAlign=middle;spacingLeft=4;spacingRight=4;overflow=hidden;points=[[0,0.5],[1,0.5]];portConstraint=eastwest;rotatable=0;whiteSpace=wrap;html=1;" vertex="1" parent="I_y_-d5DrggXX2iTpF_o-70">
          <mxGeometry y="90" width="140" height="30" as="geometry" />
        </mxCell>
        <mxCell id="I_y_-d5DrggXX2iTpF_o-130" value="#NumType" style="text;strokeColor=none;fillColor=none;align=left;verticalAlign=middle;spacingLeft=4;spacingRight=4;overflow=hidden;points=[[0,0.5],[1,0.5]];portConstraint=eastwest;rotatable=0;whiteSpace=wrap;html=1;" vertex="1" parent="I_y_-d5DrggXX2iTpF_o-70">
          <mxGeometry y="120" width="140" height="30" as="geometry" />
        </mxCell>
        <mxCell id="I_y_-d5DrggXX2iTpF_o-86" style="edgeStyle=orthogonalEdgeStyle;rounded=0;orthogonalLoop=1;jettySize=auto;html=1;entryX=0.5;entryY=0;entryDx=0;entryDy=0;" edge="1" parent="1" source="I_y_-d5DrggXX2iTpF_o-77" target="I_y_-d5DrggXX2iTpF_o-70">
          <mxGeometry relative="1" as="geometry" />
        </mxCell>
        <mxCell id="I_y_-d5DrggXX2iTpF_o-145" style="edgeStyle=orthogonalEdgeStyle;rounded=0;orthogonalLoop=1;jettySize=auto;html=1;entryX=0.999;entryY=0.257;entryDx=0;entryDy=0;entryPerimeter=0;exitX=0.5;exitY=0;exitDx=0;exitDy=0;" edge="1" parent="1" source="I_y_-d5DrggXX2iTpF_o-77" target="I_y_-d5DrggXX2iTpF_o-140">
          <mxGeometry relative="1" as="geometry">
            <Array as="points">
              <mxPoint x="757" y="380" />
              <mxPoint x="690" y="380" />
              <mxPoint x="690" y="378" />
            </Array>
          </mxGeometry>
        </mxCell>
        <mxCell id="I_y_-d5DrggXX2iTpF_o-77" value="Menu" style="swimlane;fontStyle=0;childLayout=stackLayout;horizontal=1;startSize=30;horizontalStack=0;resizeParent=1;resizeParentMax=0;resizeLast=0;collapsible=1;marginBottom=0;whiteSpace=wrap;html=1;" vertex="1" parent="1">
          <mxGeometry x="687" y="400" width="140" height="120" as="geometry" />
        </mxCell>
        <mxCell id="I_y_-d5DrggXX2iTpF_o-78" value="ðŸ”‘NumMenu" style="text;strokeColor=none;fillColor=none;align=left;verticalAlign=middle;spacingLeft=4;spacingRight=4;overflow=hidden;points=[[0,0.5],[1,0.5]];portConstraint=eastwest;rotatable=0;whiteSpace=wrap;html=1;" vertex="1" parent="I_y_-d5DrggXX2iTpF_o-77">
          <mxGeometry y="30" width="140" height="30" as="geometry" />
        </mxCell>
        <mxCell id="I_y_-d5DrggXX2iTpF_o-79" value="LibellÃ©s" style="text;strokeColor=none;fillColor=none;align=left;verticalAlign=middle;spacingLeft=4;spacingRight=4;overflow=hidden;points=[[0,0.5],[1,0.5]];portConstraint=eastwest;rotatable=0;whiteSpace=wrap;html=1;" vertex="1" parent="I_y_-d5DrggXX2iTpF_o-77">
          <mxGeometry y="60" width="140" height="30" as="geometry" />
        </mxCell>
        <mxCell id="I_y_-d5DrggXX2iTpF_o-80" value="Prix de vente" style="text;strokeColor=none;fillColor=none;align=left;verticalAlign=middle;spacingLeft=4;spacingRight=4;overflow=hidden;points=[[0,0.5],[1,0.5]];portConstraint=eastwest;rotatable=0;whiteSpace=wrap;html=1;" vertex="1" parent="I_y_-d5DrggXX2iTpF_o-77">
          <mxGeometry y="90" width="140" height="30" as="geometry" />
        </mxCell>
        <mxCell id="I_y_-d5DrggXX2iTpF_o-95" style="edgeStyle=orthogonalEdgeStyle;rounded=0;orthogonalLoop=1;jettySize=auto;html=1;entryX=0.045;entryY=-0.012;entryDx=0;entryDy=0;entryPerimeter=0;" edge="1" parent="1" source="I_y_-d5DrggXX2iTpF_o-45" target="I_y_-d5DrggXX2iTpF_o-26">
          <mxGeometry relative="1" as="geometry" />
        </mxCell>
        <mxCell id="I_y_-d5DrggXX2iTpF_o-98" style="edgeStyle=orthogonalEdgeStyle;rounded=0;orthogonalLoop=1;jettySize=auto;html=1;entryX=0.75;entryY=0;entryDx=0;entryDy=0;" edge="1" parent="1" source="I_y_-d5DrggXX2iTpF_o-61" target="I_y_-d5DrggXX2iTpF_o-26">
          <mxGeometry relative="1" as="geometry" />
        </mxCell>
        <mxCell id="I_y_-d5DrggXX2iTpF_o-102" style="edgeStyle=orthogonalEdgeStyle;rounded=0;orthogonalLoop=1;jettySize=auto;html=1;entryX=1;entryY=0;entryDx=0;entryDy=0;" edge="1" parent="1" source="I_y_-d5DrggXX2iTpF_o-99" target="I_y_-d5DrggXX2iTpF_o-26">
          <mxGeometry relative="1" as="geometry">
            <Array as="points">
              <mxPoint x="620" y="320" />
              <mxPoint x="440" y="320" />
              <mxPoint x="440" y="370" />
              <mxPoint x="450" y="370" />
            </Array>
          </mxGeometry>
        </mxCell>
        <mxCell id="I_y_-d5DrggXX2iTpF_o-99" value="Tables" style="swimlane;fontStyle=0;childLayout=stackLayout;horizontal=1;startSize=30;horizontalStack=0;resizeParent=1;resizeParentMax=0;resizeLast=0;collapsible=1;marginBottom=0;whiteSpace=wrap;html=1;" vertex="1" parent="1">
          <mxGeometry x="570" y="100" width="140" height="90" as="geometry" />
        </mxCell>
        <mxCell id="I_y_-d5DrggXX2iTpF_o-100" value="ðŸ”‘NumTables" style="text;strokeColor=none;fillColor=none;align=left;verticalAlign=middle;spacingLeft=4;spacingRight=4;overflow=hidden;points=[[0,0.5],[1,0.5]];portConstraint=eastwest;rotatable=0;whiteSpace=wrap;html=1;" vertex="1" parent="I_y_-d5DrggXX2iTpF_o-99">
          <mxGeometry y="30" width="140" height="30" as="geometry" />
        </mxCell>
        <mxCell id="I_y_-d5DrggXX2iTpF_o-101" value="CapacitÃ©" style="text;strokeColor=none;fillColor=none;align=left;verticalAlign=middle;spacingLeft=4;spacingRight=4;overflow=hidden;points=[[0,0.5],[1,0.5]];portConstraint=eastwest;rotatable=0;whiteSpace=wrap;html=1;" vertex="1" parent="I_y_-d5DrggXX2iTpF_o-99">
          <mxGeometry y="60" width="140" height="30" as="geometry" />
        </mxCell>
        <mxCell id="I_y_-d5DrggXX2iTpF_o-103" style="edgeStyle=orthogonalEdgeStyle;rounded=0;orthogonalLoop=1;jettySize=auto;html=1;entryX=1.013;entryY=0.19;entryDx=0;entryDy=0;entryPerimeter=0;" edge="1" parent="1" source="I_y_-d5DrggXX2iTpF_o-18" target="I_y_-d5DrggXX2iTpF_o-24">
          <mxGeometry relative="1" as="geometry" />
        </mxCell>
        <mxCell id="I_y_-d5DrggXX2iTpF_o-123" style="edgeStyle=orthogonalEdgeStyle;rounded=0;orthogonalLoop=1;jettySize=auto;html=1;entryX=-0.009;entryY=0.882;entryDx=0;entryDy=0;entryPerimeter=0;" edge="1" parent="1" source="I_y_-d5DrggXX2iTpF_o-104" target="I_y_-d5DrggXX2iTpF_o-128">
          <mxGeometry relative="1" as="geometry">
            <mxPoint x="340" y="530" as="targetPoint" />
          </mxGeometry>
        </mxCell>
        <mxCell id="I_y_-d5DrggXX2iTpF_o-104" value="SÃ©lectionner" style="swimlane;fontStyle=0;childLayout=stackLayout;horizontal=1;startSize=30;horizontalStack=0;resizeParent=1;resizeParentMax=0;resizeLast=0;collapsible=1;marginBottom=0;whiteSpace=wrap;html=1;" vertex="1" parent="1">
          <mxGeometry x="120" y="560" width="110" height="120" as="geometry" />
        </mxCell>
        <mxCell id="I_y_-d5DrggXX2iTpF_o-105" value="#NumCommande" style="text;strokeColor=none;fillColor=none;align=left;verticalAlign=middle;spacingLeft=4;spacingRight=4;overflow=hidden;points=[[0,0.5],[1,0.5]];portConstraint=eastwest;rotatable=0;whiteSpace=wrap;html=1;" vertex="1" parent="I_y_-d5DrggXX2iTpF_o-104">
          <mxGeometry y="30" width="110" height="30" as="geometry" />
        </mxCell>
        <mxCell id="I_y_-d5DrggXX2iTpF_o-106" value="#NumVin" style="text;strokeColor=none;fillColor=none;align=left;verticalAlign=middle;spacingLeft=4;spacingRight=4;overflow=hidden;points=[[0,0.5],[1,0.5]];portConstraint=eastwest;rotatable=0;whiteSpace=wrap;html=1;" vertex="1" parent="I_y_-d5DrggXX2iTpF_o-104">
          <mxGeometry y="60" width="110" height="30" as="geometry" />
        </mxCell>
        <mxCell id="I_y_-d5DrggXX2iTpF_o-107" value="QtÃ©" style="text;strokeColor=none;fillColor=none;align=left;verticalAlign=middle;spacingLeft=4;spacingRight=4;overflow=hidden;points=[[0,0.5],[1,0.5]];portConstraint=eastwest;rotatable=0;whiteSpace=wrap;html=1;" vertex="1" parent="I_y_-d5DrggXX2iTpF_o-104">
          <mxGeometry y="90" width="110" height="30" as="geometry" />
        </mxCell>
        <mxCell id="I_y_-d5DrggXX2iTpF_o-110" value="Contenir" style="swimlane;fontStyle=0;childLayout=stackLayout;horizontal=1;startSize=30;horizontalStack=0;resizeParent=1;resizeParentMax=0;resizeLast=0;collapsible=1;marginBottom=0;whiteSpace=wrap;html=1;" vertex="1" parent="1">
          <mxGeometry x="180" y="410" width="100" height="120" as="geometry" />
        </mxCell>
        <mxCell id="I_y_-d5DrggXX2iTpF_o-111" value="#NumCommande" style="text;strokeColor=none;fillColor=none;align=left;verticalAlign=middle;spacingLeft=4;spacingRight=4;overflow=hidden;points=[[0,0.5],[1,0.5]];portConstraint=eastwest;rotatable=0;whiteSpace=wrap;html=1;" vertex="1" parent="I_y_-d5DrggXX2iTpF_o-110">
          <mxGeometry y="30" width="100" height="30" as="geometry" />
        </mxCell>
        <mxCell id="I_y_-d5DrggXX2iTpF_o-114" value="#NumBoissons" style="text;strokeColor=none;fillColor=none;align=left;verticalAlign=middle;spacingLeft=4;spacingRight=4;overflow=hidden;points=[[0,0.5],[1,0.5]];portConstraint=eastwest;rotatable=0;whiteSpace=wrap;html=1;" vertex="1" parent="I_y_-d5DrggXX2iTpF_o-110">
          <mxGeometry y="60" width="100" height="30" as="geometry" />
        </mxCell>
        <mxCell id="I_y_-d5DrggXX2iTpF_o-115" value="QtÃ©" style="text;strokeColor=none;fillColor=none;align=left;verticalAlign=middle;spacingLeft=4;spacingRight=4;overflow=hidden;points=[[0,0.5],[1,0.5]];portConstraint=eastwest;rotatable=0;whiteSpace=wrap;html=1;" vertex="1" parent="I_y_-d5DrggXX2iTpF_o-110">
          <mxGeometry y="90" width="100" height="30" as="geometry" />
        </mxCell>
        <mxCell id="I_y_-d5DrggXX2iTpF_o-117" style="edgeStyle=orthogonalEdgeStyle;rounded=0;orthogonalLoop=1;jettySize=auto;html=1;entryX=-0.024;entryY=0.407;entryDx=0;entryDy=0;entryPerimeter=0;" edge="1" parent="1" source="I_y_-d5DrggXX2iTpF_o-114" target="I_y_-d5DrggXX2iTpF_o-26">
          <mxGeometry relative="1" as="geometry">
            <Array as="points">
              <mxPoint x="290" y="485" />
              <mxPoint x="290" y="417" />
            </Array>
          </mxGeometry>
        </mxCell>
        <mxCell id="I_y_-d5DrggXX2iTpF_o-138" style="edgeStyle=orthogonalEdgeStyle;rounded=0;orthogonalLoop=1;jettySize=auto;html=1;entryX=1;entryY=0.5;entryDx=0;entryDy=0;" edge="1" parent="1" source="I_y_-d5DrggXX2iTpF_o-133" target="I_y_-d5DrggXX2iTpF_o-125">
          <mxGeometry relative="1" as="geometry">
            <Array as="points">
              <mxPoint x="530" y="455" />
            </Array>
          </mxGeometry>
        </mxCell>
        <mxCell id="I_y_-d5DrggXX2iTpF_o-133" value="Constituer" style="swimlane;fontStyle=0;childLayout=stackLayout;horizontal=1;startSize=30;horizontalStack=0;resizeParent=1;resizeParentMax=0;resizeLast=0;collapsible=1;marginBottom=0;whiteSpace=wrap;html=1;" vertex="1" parent="1">
          <mxGeometry x="490" y="510" width="140" height="120" as="geometry" />
        </mxCell>
        <mxCell id="I_y_-d5DrggXX2iTpF_o-134" value="#NumPlats" style="text;strokeColor=none;fillColor=none;align=left;verticalAlign=middle;spacingLeft=4;spacingRight=4;overflow=hidden;points=[[0,0.5],[1,0.5]];portConstraint=eastwest;rotatable=0;whiteSpace=wrap;html=1;" vertex="1" parent="I_y_-d5DrggXX2iTpF_o-133">
          <mxGeometry y="30" width="140" height="30" as="geometry" />
        </mxCell>
        <mxCell id="I_y_-d5DrggXX2iTpF_o-135" value="#NumCommande" style="text;strokeColor=none;fillColor=none;align=left;verticalAlign=middle;spacingLeft=4;spacingRight=4;overflow=hidden;points=[[0,0.5],[1,0.5]];portConstraint=eastwest;rotatable=0;whiteSpace=wrap;html=1;" vertex="1" parent="I_y_-d5DrggXX2iTpF_o-133">
          <mxGeometry y="60" width="140" height="30" as="geometry" />
        </mxCell>
        <mxCell id="I_y_-d5DrggXX2iTpF_o-136" value="QtÃ©" style="text;strokeColor=none;fillColor=none;align=left;verticalAlign=middle;spacingLeft=4;spacingRight=4;overflow=hidden;points=[[0,0.5],[1,0.5]];portConstraint=eastwest;rotatable=0;whiteSpace=wrap;html=1;" vertex="1" parent="I_y_-d5DrggXX2iTpF_o-133">
          <mxGeometry y="90" width="140" height="30" as="geometry" />
        </mxCell>
        <mxCell id="I_y_-d5DrggXX2iTpF_o-137" style="edgeStyle=orthogonalEdgeStyle;rounded=0;orthogonalLoop=1;jettySize=auto;html=1;entryX=0.491;entryY=1.024;entryDx=0;entryDy=0;entryPerimeter=0;" edge="1" parent="1" source="I_y_-d5DrggXX2iTpF_o-72" target="I_y_-d5DrggXX2iTpF_o-136">
          <mxGeometry relative="1" as="geometry" />
        </mxCell>
        <mxCell id="I_y_-d5DrggXX2iTpF_o-146" style="edgeStyle=orthogonalEdgeStyle;rounded=0;orthogonalLoop=1;jettySize=auto;html=1;entryX=1.012;entryY=0.119;entryDx=0;entryDy=0;entryPerimeter=0;" edge="1" parent="1" source="I_y_-d5DrggXX2iTpF_o-139" target="I_y_-d5DrggXX2iTpF_o-26">
          <mxGeometry relative="1" as="geometry" />
        </mxCell>
        <mxCell id="I_y_-d5DrggXX2iTpF_o-139" value="Constituer" style="swimlane;fontStyle=0;childLayout=stackLayout;horizontal=1;startSize=30;horizontalStack=0;resizeParent=1;resizeParentMax=0;resizeLast=0;collapsible=1;marginBottom=0;whiteSpace=wrap;html=1;" vertex="1" parent="1">
          <mxGeometry x="530" y="340" width="140" height="120" as="geometry" />
        </mxCell>
        <mxCell id="I_y_-d5DrggXX2iTpF_o-140" value="#NumPlats" style="text;strokeColor=none;fillColor=none;align=left;verticalAlign=middle;spacingLeft=4;spacingRight=4;overflow=hidden;points=[[0,0.5],[1,0.5]];portConstraint=eastwest;rotatable=0;whiteSpace=wrap;html=1;" vertex="1" parent="I_y_-d5DrggXX2iTpF_o-139">
          <mxGeometry y="30" width="140" height="30" as="geometry" />
        </mxCell>
        <mxCell id="I_y_-d5DrggXX2iTpF_o-141" value="#NumCommande" style="text;strokeColor=none;fillColor=none;align=left;verticalAlign=middle;spacingLeft=4;spacingRight=4;overflow=hidden;points=[[0,0.5],[1,0.5]];portConstraint=eastwest;rotatable=0;whiteSpace=wrap;html=1;" vertex="1" parent="I_y_-d5DrggXX2iTpF_o-139">
          <mxGeometry y="60" width="140" height="30" as="geometry" />
        </mxCell>
        <mxCell id="I_y_-d5DrggXX2iTpF_o-142" value="QtÃ©" style="text;strokeColor=none;fillColor=none;align=left;verticalAlign=middle;spacingLeft=4;spacingRight=4;overflow=hidden;points=[[0,0.5],[1,0.5]];portConstraint=eastwest;rotatable=0;whiteSpace=wrap;html=1;" vertex="1" parent="I_y_-d5DrggXX2iTpF_o-139">
          <mxGeometry y="90" width="140" height="30" as="geometry" />
        </mxCell>
      </root>
    </mxGraphModel>
  </diagram>
</mxfile>
